<svg xmlns="http://www.w3.org/2000/svg" viewBox="0 0 2000 410.7" style="enable-background:new 0 0 2000 410.7" xml:space="preserve"><path d="M574.4 63.8c-6.8-25.3-26.6-45.1-51.9-51.9C476.8-.4 293.3-.4 293.3-.4S109.9-.4 64.1 11.9C38.8 18.7 19 38.5 12.2 63.8 0 109.5 0 205 0 205s0 95.5 12.3 141.2c6.8 25.3 26.6 45.1 51.9 51.9 45.8 12.3 229.2 12.3 229.2 12.3s183.5 0 229.2-12.3c25.3-6.8 45.1-26.6 51.9-51.9 12.3-45.8 12.3-141.2 12.3-141.2s-.1-95.5-12.4-141.2z" style="fill:red" transform="translate(0 .36)"/><path d="m234.7 293 152.4-88-152.4-88v176z" style="fill:#fff" transform="translate(0 .36)"/><path d="M847.4 130.36v14.2c0 71-31.5 112.4-100.3 112.4h-10.5v124.2h-56.2V29.26H752c65.6 0 95.4 27.7 95.4 101.1zm-59.1 5c0-51.2-9.2-63.3-41.1-63.3h-10.5v143h9.6c30.2 0 42-21.8 42-69.2v-10.5zm192-15.5-2.9 66.7c-23.9-5-43.6-1.3-52.4 14.2v180.4h-55.8v-257.1h44.5l5 55.7h2.1c5.9-40.7 24.7-61.2 49.1-61.2 3.5.1 7 .5 10.4 1.3zm64.2 152.1v13c0 45.3 2.5 60.8 21.8 60.8 18.4 0 22.7-14.2 23.1-43.6l49.9 2.9c3.8 55.4-25.2 80.1-74.2 80.1-59.6 0-77.2-39-77.2-109.9v-44.9c0-74.7 19.7-111.2 78.9-111.2 59.6 0 74.7 31 74.7 108.6v44.1h-97zm0-52.8v18.4h42.4v-18.3c0-47.3-3.4-60.8-21.3-60.8s-21.1 13.9-21.1 60.8v-.1zm385.1-32.3v194.2h-57.8v-189.9c0-21-5.5-31.5-18-31.5-10.1 0-19.3 5.9-25.6 16.8.4 3.5.5 7 .4 10.5v194.2h-57.9v-190c0-21-5.5-31.5-18-31.5-10.1 0-18.9 5.9-25.2 16.4v205.1h-57.9v-257.1h45.7l5.1 32.7h.8c13-24.7 34-38.2 58.7-38.2 24.3 0 38.2 12.2 44.5 34 13.4-22.2 33.6-34 56.6-34 35.2 0 48.6 25.2 48.6 68.3zm28.9-128.7c0-27.7 10.1-35.6 31.5-35.6 21.8 0 31.5 9.2 31.5 35.6 0 28.5-9.6 35.7-31.5 35.7-21.4 0-31.5-7.2-31.5-35.7zm3.4 65.9h55.4v257.1h-55.4v-257.1zm244.5 0v257.1h-45.3l-5-31.5h-1.3c-13 25.2-31.9 35.6-55.4 35.6-34.4 0-49.9-21.8-49.9-69.2v-192h57.9v188.8c0 22.7 4.7 31.9 16.4 31.9 10.6-.4 20.1-6.7 24.7-16.4v-204.3h57.9zm293.6 62.8v194.2h-57.9v-189.9c0-21-5.5-31.5-18-31.5-10.1 0-19.3 5.9-25.6 16.8.4 3.4.5 6.9.4 10.4v194.2H1841v-189.9c0-21-5.5-31.5-18-31.5-10.1 0-18.9 5.9-25.2 16.4v205.1H1740v-257.1h45.7l5 32.7h.8c13-24.7 34-38.2 58.7-38.2 24.3 0 38.2 12.2 44.5 34 13.4-22.2 33.6-34 56.6-34 35.4 0 48.7 25.2 48.7 68.3z"/></svg>